<mxfile host="app.diagrams.net" agent="Mozilla/5.0 (Windows NT 10.0; Win64; x64) AppleWebKit/537.36 (KHTML, like Gecko) Chrome/135.0.0.0 Safari/537.36" version="26.1.1">
  <diagram name="Page-1" id="VUKtPExIDEoxv08V5BPN">
    <mxGraphModel dx="921" dy="572" grid="0" gridSize="10" guides="1" tooltips="1" connect="1" arrows="1" fold="1" page="0" pageScale="1" pageWidth="850" pageHeight="1100" math="0" shadow="0">
      <root>
        <mxCell id="0" />
        <mxCell id="1" parent="0" />
        <mxCell id="ltZBOqtmlbRGL_UnoXjh-4" value="" style="edgeStyle=none;curved=1;rounded=0;orthogonalLoop=1;jettySize=auto;html=1;fontSize=12;startSize=8;endSize=8;" edge="1" parent="1" source="ltZBOqtmlbRGL_UnoXjh-1" target="ltZBOqtmlbRGL_UnoXjh-2">
          <mxGeometry relative="1" as="geometry" />
        </mxCell>
        <mxCell id="ltZBOqtmlbRGL_UnoXjh-1" value="" style="image;aspect=fixed;perimeter=ellipsePerimeter;html=1;align=center;shadow=0;dashed=0;spacingTop=3;image=img/lib/active_directory/user.svg;" vertex="1" parent="1">
          <mxGeometry x="214.25" y="322" width="18.5" height="50" as="geometry" />
        </mxCell>
        <mxCell id="ltZBOqtmlbRGL_UnoXjh-20" style="edgeStyle=orthogonalEdgeStyle;rounded=0;orthogonalLoop=1;jettySize=auto;html=1;fontSize=12;startSize=8;endSize=8;entryX=0.602;entryY=1.028;entryDx=0;entryDy=0;entryPerimeter=0;" edge="1" parent="1" source="ltZBOqtmlbRGL_UnoXjh-2" target="ltZBOqtmlbRGL_UnoXjh-6">
          <mxGeometry relative="1" as="geometry">
            <mxPoint x="356" y="205" as="targetPoint" />
          </mxGeometry>
        </mxCell>
        <mxCell id="ltZBOqtmlbRGL_UnoXjh-2" value="" style="outlineConnect=0;dashed=0;verticalLabelPosition=bottom;verticalAlign=top;align=center;html=1;shape=mxgraph.aws3.application_load_balancer;fillColor=#F58534;gradientColor=none;" vertex="1" parent="1">
          <mxGeometry x="189" y="169" width="69" height="72" as="geometry" />
        </mxCell>
        <mxCell id="ltZBOqtmlbRGL_UnoXjh-5" value="web-server-1" style="ellipse;whiteSpace=wrap;html=1;fillColor=#ffe6cc;strokeColor=#d79b00;" vertex="1" parent="1">
          <mxGeometry x="47" y="52" width="120" height="53" as="geometry" />
        </mxCell>
        <mxCell id="ltZBOqtmlbRGL_UnoXjh-6" value="web-server-2" style="ellipse;whiteSpace=wrap;html=1;fillColor=#ffe6cc;strokeColor=none;gradientColor=none;" vertex="1" parent="1">
          <mxGeometry x="273" y="45" width="120" height="58" as="geometry" />
        </mxCell>
        <mxCell id="ltZBOqtmlbRGL_UnoXjh-19" value="" style="edgeStyle=orthogonalEdgeStyle;orthogonalLoop=1;jettySize=auto;html=1;rounded=0;fontSize=12;startSize=8;endSize=8;exitX=0;exitY=0.5;exitDx=0;exitDy=0;exitPerimeter=0;entryX=0.5;entryY=1;entryDx=0;entryDy=0;" edge="1" parent="1" source="ltZBOqtmlbRGL_UnoXjh-2" target="ltZBOqtmlbRGL_UnoXjh-5">
          <mxGeometry width="120" relative="1" as="geometry">
            <mxPoint x="42" y="164" as="sourcePoint" />
            <mxPoint x="100" y="205" as="targetPoint" />
          </mxGeometry>
        </mxCell>
        <UserObject label="&#xa;&lt;p class=&quot;&quot; data-end=&quot;319&quot; data-start=&quot;75&quot;&gt;&lt;strong data-end=&quot;319&quot; data-start=&quot;75&quot;&gt;The Load Balancer (ELB) continuously checks the web server&#39;s health by sending requests to the path &lt;code data-end=&quot;190&quot; data-start=&quot;177&quot;&gt;/index.html&lt;/code&gt;. It pings the server every 2 seconds and expects a response. If no response is received, the instance is considered unhealthy.&lt;/strong&gt;&lt;/p&gt;&#xa;&lt;p class=&quot;&quot; data-end=&quot;549&quot; data-start=&quot;321&quot;&gt;&lt;strong data-end=&quot;549&quot; data-start=&quot;321&quot;&gt;If the health threshold is set to 3 successful checks, the instance will be marked healthy only after 3 consecutive successful responses. The next health check will be performed based on the configured health check interval.&lt;/strong&gt;&lt;/p&gt;&#xa;&#xa;" id="ltZBOqtmlbRGL_UnoXjh-21">
          <mxCell style="rounded=0;whiteSpace=wrap;html=1;" vertex="1" parent="1">
            <mxGeometry x="-36" y="389" width="590" height="150" as="geometry" />
          </mxCell>
        </UserObject>
      </root>
    </mxGraphModel>
  </diagram>
</mxfile>
